#tb 0: 1/25
#media_type 0: video
#codec_id 0: rawvideo
#dimensions 0: 352x288
#sar 0: 0/1
0,          0,          0,        1,   405504, 0xad0f2d82
0,          1,          1,        1,   405504, 0x81d7d31f
0,          2,          2,        1,   405504, 0x40c5e836
